<?xml version="1.0" encoding="UTF-8"?>
<!DOCTYPE svg PUBLIC "-//W3C//DTD SVG 1.1//EN" "http://www.w3.org/Graphics/SVG/1.1/DTD/svg11.dtd">
<!-- Creator: CorelDRAW 2021.5 -->
<svg xmlns="http://www.w3.org/2000/svg" xml:space="preserve" width="300mm" height="300mm" version="1.1" style="shape-rendering:geometricPrecision; text-rendering:geometricPrecision; image-rendering:optimizeQuality; fill-rule:evenodd; clip-rule:evenodd"
viewBox="0 0 30000 30000"
 xmlns:xlink="http://www.w3.org/1999/xlink"
 xmlns:xodm="http://www.corel.com/coreldraw/odm/2003">
 <defs>
  <style type="text/css">
   <![CDATA[
    .fil1 {fill:#FFB548}
    .fil0 {fill:white}
   ]]>
  </style>
 </defs>
 <g id="Layer_x0020_1">
  <metadata id="CorelCorpID_0Corel-Layer"/>
  <g id="_2511852457216">
   <path class="fil0" d="M29997.07 6002.71l-776.71 -1274.44c-1019.27,-681.63 -1595.59,-1859.02 -2887.3,-1974.17 -1066.84,-95.07 -1011.61,373.42 -1689.13,654.51 -7.14,2.99 -7967.63,-197.93 -6362.87,4781.86 -2336.46,1741.69 -1976.08,2863.23 199.64,4120.26 -351.17,740.72 -194.69,1512.34 628.36,2274.99 925.9,857.99 1515.92,344.63 2195.48,646.81 1328.73,590.87 1902.07,1204.12 4667.15,-859.72 3578.2,-2670.79 3105.05,-5692.27 3339.99,-6141.69 684.99,-1310.37 623.8,711.31 685.39,-2228.41z"/>
   <path class="fil1" d="M18785.44 8029.3c987.58,-665.98 1574.26,-1501.63 1967.71,-2281.12 -331.65,808.02 -27.04,1132.87 -934.27,2036.88 -801.02,798.16 -2061.49,1077.53 -2454.5,1889.48 -355,733.42 91.35,1785.77 960.27,2001.24 719.74,178.53 1902.01,-499.23 2747.56,-906.21 -933.7,1128.71 -3151.57,1332.4 -1945.25,3092.03 1125.88,1642.35 2654.26,231.01 4190.85,-514.08 -402.03,650.86 -1009.16,932.22 -1676.82,1468.22 2342.49,2249.99 9001.84,-4298.52 6571.57,-8081.05 -1490.22,-2319.38 -3231.96,-2962.69 -5273.9,-2797.18 -2210.79,179.19 -5194.67,1663.9 -4153.22,4091.79zm5277.81 -1172.61c262.57,43.66 -60.07,497.64 1320.75,-559.61 547.82,-419.46 766.57,-466.96 695.62,-970.28 -614.64,160.53 -530.44,233.55 -1046.42,617.38 -494.83,368.1 -729.19,395.85 -969.95,912.51zm398.43 2233.33c719.92,-272.1 2394.43,-1737.21 2510.22,-2605.33 -661.23,40.71 -704.1,424.46 -1391.89,1085.55 -565.74,543.7 -1183.96,795.52 -1118.33,1519.78zm1644.47 523.64c228.99,-21.3 -81.7,408.83 578.5,-270.55l877.42 -1295.71c277.08,-597.22 195.39,-239.21 25.93,-775.07 -421.87,321.88 -1446.17,1818.85 -1481.85,2341.33z"/>
   <path class="fil1" d="M29309.83 7501.68c976.49,-1369.19 -1942.9,-5059.69 -4088.81,-3958.11 1246.21,770.15 2027.97,951.22 3252.51,2704.73 322.59,461.93 511.99,1005.94 836.3,1253.38z"/>
  </g>
  <g id="_2511852446800">
   <path class="fil0" d="M12131.94 27264.29l653.35 0c1067.08,-811.02 265.5,-301.96 1914.52,-372.01 2353.76,-100.01 3465.31,-1750.83 5299.94,-2618.97 1055.46,-499.43 3286.98,-1223.86 3456.52,-1866.48 532.29,-2017.8 -3109.98,-872.15 -3536.39,-849.91 868.03,-1157.57 3775.61,-1657.77 2986.02,-3268.09 -311.08,-634.39 -1430.16,-1014.2 -2363.57,-609.51 -722.78,313.35 -1448.54,902.68 -2184.4,1196.34 318.53,-753.25 1547.51,-2054.15 1634.76,-2537.85 251.94,-1396.28 -1665.27,-1659.39 -2601.73,-901.18 -894.34,724.14 -2467.84,3473.06 -4093.63,4433.26 -148.12,-3645.36 -2956.28,-2893.73 -3255.97,-2311.42 -375.72,730.14 293.4,1800.12 555.3,2396.91 344.45,784.82 -38.59,1857.23 -65.12,2803.35 -1726.98,655.93 -414.54,2760.1 435.88,3693.14 471.73,517.59 614.91,442.25 1164.52,812.42z"/>
   <path class="fil1" d="M10460.57 17725.96c-327.58,371.75 -4.38,1097.77 196.33,1520.5 331.44,697.93 527.66,716.67 448.05,1665.81 -118.52,1413 -406.74,2439.03 250.58,3597.11 2580.16,4545.69 6847.96,261.57 8094.73,-394.25 1815.07,-954.73 4420.62,-1485 3488.27,-2357.95 -434.67,-406.96 -2887.62,92.18 -3500.04,282.37 -410.16,127.39 -832.92,601.57 -1303.8,874.65 923.01,-2279.08 5105.55,-3152.1 4445.72,-4428.82 -883.16,-1708.89 -4690.93,1046.53 -5232.16,1706.39 -85.45,104.12 -117.79,159.14 -233.52,281.9l-400.68 359.44c154.07,-641.7 1749.58,-2972.49 2282.93,-3661.02 355.22,-458.56 645.68,-611.42 617.05,-1363.01 -2053.68,-1481.76 -2615.74,1290.21 -5879.64,4275.41 -1645.68,1505.17 120,-2326.96 -2278.56,-2610.99 -859.17,-101.73 -904.59,153.56 -995.26,252.46zm1886.15 7210.59c428.2,-59.43 2123.94,-1000.44 2247.17,-1705.25 -550.55,115.22 -806.83,465.69 -1236.03,750.38 -413.51,274.25 -899.52,403.66 -1011.14,954.87zm604.03 512.56c31.83,14.74 79.42,6.61 95.67,43.81 79.2,181.48 833.07,-146.24 975.23,-200.6 1081.27,-413.32 800.55,-372.86 777.91,-714.88 -201.74,36.13 -1627.67,540.93 -1848.81,871.67zm-1280.61 -1418.62c324.41,122.57 498.81,-79.06 840.13,-381.9 366.06,-324.75 579.52,-393.58 609.84,-902.5 -441.7,72.62 -481.06,304.06 -802.43,581.98 -337.75,292.15 -682.83,342.79 -647.54,702.42z"/>
   <path class="fil1" d="M12868.39 26761.84c-280.87,-331.58 -468.2,-382.12 -770.56,-660.08 -1171.09,-1076.41 -1283.81,-2221.3 -1646.86,-2930.29 -1187.4,959.21 996.81,4142.4 2417.42,3590.37z"/>
  </g>
  <g id="_2511852505360">
   <path class="fil0" d="M-2.93 9651.94l0 1015.08c941.3,1756.04 778.84,338.74 1336.11,1489.56 121.61,251.13 188.76,480.06 314.98,729.45 385.72,762.1 1195.68,1625.85 1820.64,2061.71 3124.33,2179.1 4330.54,919.19 5883.73,433.63 1349.18,-421.83 4333.79,2932.78 5550.19,1533.79 529.91,-609.49 549.53,-1941.62 -443.48,-2816.15 -456.92,-402.42 -706.91,-490.84 -1166.12,-773.39 -251.17,-154.59 -383.44,-242.79 -634.9,-398.11 -164.36,-101.52 -116.63,-52.3 -287.46,-179.11l-379.92 -344.28c730.21,39.49 2742.28,380.6 3204.32,327.45 1041.64,-119.79 1246.72,-1325.67 760.83,-2207.43 -1047.01,-1900.05 -3984.35,-919.69 -5418.05,-1659.37 -650.59,-433.97 -29.9,-977.03 -1044.94,-2028.9 -766.7,-794.53 -1038.72,-516.42 -1985.6,-946.96l-1652.52 0c-101.95,47.53 -1737.52,592.62 -1940.74,637.86 -733,163.13 -660.86,-607.46 -1917.31,14.93 -1155.55,572.36 -1312.51,1864.92 -1999.76,3110.24z"/>
   <path class="fil1" d="M8995.61 15158.41c-442.04,-428.73 -1000.41,-425.09 -1536.54,-742.94 2679.03,-211.09 5555.86,2676.48 7030.24,2358.8 972.5,-1825.21 -512.15,-2563.93 -1768.85,-3318.79 -600.7,-360.81 -1190.52,-742.14 -1805.51,-1032.29 -863.33,-407.29 -1517.47,-279.04 -2270.64,-526.7 2787.74,-402.21 6014.43,841.46 6807.14,217.98 899.18,-594.69 -46.89,-1708.39 -463.69,-1978.29 -1747.37,-1131.62 -5978.79,151.51 -7265.85,-2485.15 711.27,358.07 950.39,886.46 2121,1105.28 -232.91,-2198.08 -2191.27,-2805.07 -4472.15,-2264.21 -2042.64,484.37 -2954.12,1459.79 -3626.83,3378.96 -1005.53,2868.63 2267.76,5447.52 4270.28,5793.75 1181.98,204.32 2081.03,-243.1 2981.4,-506.4zm-6000.01 -6584.43c238.1,559.97 1688.59,913.43 2073.25,745.86 -170.79,-401.62 326.44,-138.74 -945.06,-550.89 -522.38,-169.3 -715.37,-400.86 -1128.19,-194.97zm-439.34 1193.35c259.63,495.79 2337.36,1506.81 2787.36,1342.54 -161.02,-557.86 -178.74,-313.88 -1353.03,-869.84 -556,-263.26 -985.99,-747.46 -1434.33,-472.7zm-168.97 846.71c-46.51,103.72 -489.49,-138.4 123.94,504.84 128.46,134.71 309.27,280.85 475.53,430.83 319.5,288.17 659.38,582.6 1201.05,632.28 -213.96,-797.95 -178.91,-314.55 -894.66,-936.6 -316.24,-274.85 -521.92,-655.37 -905.86,-631.35z"/>
   <path class="fil1" d="M892.11 11218.88c273.24,-353.25 219.92,-1246 878.25,-2517.2 424.2,-819.14 855.37,-1291.08 1443.85,-1853.12 -1832.15,-491.82 -3476.73,3247.66 -2322.1,4370.32z"/>
  </g>
 </g>
</svg>
